<svg width="24" height="24" fill="currentColor" stroke="currentColor" stroke-width="0.75" version="1.1" xmlns="http://www.w3.org/2000/svg">
    <path class="" d="m22.732 17.006c-0.14994-0.41593-0.43706-0.63677-0.76222-0.82115-0.06122-0.03643-0.11823-0.06647-0.16467-0.08789-0.09712-0.05147-0.19634-0.10075-0.29561-0.15222-1.0155-0.54671-1.8094-1.2371-2.3584-2.0539-0.18583-0.27657-0.31461-0.52528-0.40539-0.72892-0.04643-0.13722-0.04434-0.21441-0.01056-0.28518 0.02551-0.05359 0.09288-0.10932 0.1309-0.13719 0.1582-0.10638 0.31726-0.21144 0.47715-0.31517 0.2175-0.14365 0.39061-0.25731 0.50042-0.33447 0.41806-0.29587 0.70941-0.61104 0.89098-0.96264 0.25761-0.49525 0.28928-1.0613 0.09079-1.593-0.27445-0.73753-0.96276-1.1963-1.7947-1.1963-0.17312 0-0.34835 0.019257-0.52149 0.057856-0.04643 0.010812-0.09078 0.021462-0.13511 0.032167 0.0085-0.50168-0.0042-1.0377-0.04856-1.5608-0.15622-1.8438-0.79174-2.8107-1.4547-3.5804-0.27657-0.3216-0.75795-0.79112-1.48-1.2113-1.0071-0.58744-2.1472-0.88331-3.3908-0.88331-1.2394 0-2.3795 0.29587-3.3866 0.88122-0.72631 0.42019-1.2077 0.89184-1.4822 1.2113-0.66296 0.76969-1.2985 1.7366-1.4548 3.5804-0.044256 0.52315-0.054875 1.0591-0.048537 1.5608-0.0443-0.010812-0.090791-0.021408-0.1351-0.032166-0.1713-0.0382-0.34614-0.057611-0.52153-0.057899-0.83186 0-1.5202 0.45882-1.7946 1.1964-0.19844 0.53168-0.16681 1.0977 0.09079 1.5929 0.18158 0.35164 0.47505 0.66681 0.89098 0.96268 0.11189 0.07933 0.28294 0.19294 0.50039 0.33443 0.11823 0.0772 0.28927 0.19082 0.45818 0.30444 0.025342 0.01716 0.11613 0.08575 0.14777 0.15009 0.035883 0.07289 0.035883 0.15222-0.016891 0.298-0.088679 0.19942-0.21749 0.44383-0.39907 0.71397-0.53837 0.79968-1.309 1.4772-2.2908 2.0174-0.52149 0.28087-1.062 0.46742-1.29 1.0977-0.17314 0.47599-0.059152 1.0184 0.37792 1.4751 0.14356 0.15652 0.32514 0.29587 0.55316 0.42453 0.5363 0.30014 0.99234 0.44809 1.3513 0.54885 0.063348 0.01931 0.20906 0.06647 0.27236 0.12435 0.16047 0.1415 0.13723 0.35592 0.35048 0.6689 0.1288 0.1951 0.2766 0.32804 0.39907 0.41377 0.44547 0.31303 0.94795 0.33229 1.4801 0.35375 0.47928 0.01925 1.024 0.04032 1.6447 0.24867 0.2576 0.08577 0.52573 0.25302 0.834 0.44597 0.74317 0.46526 1.763 1.0999 3.4668 1.0999 1.706 0 2.73-0.6389 3.4795-1.1042 0.30823-0.19085 0.57427-0.35805 0.82343-0.44167 0.62071-0.20796 1.1655-0.22941 1.6447-0.24867 0.53206-0.02149 1.0324-0.04075 1.4801-0.35375 0.18645-0.13208 0.34211-0.30406 0.45604-0.50382 0.15205-0.26368 0.14994-0.45026 0.29345-0.57675 0.05917-0.05148 0.18794-0.0965 0.25761-0.11792 0.36106-0.10077 0.82343-0.24871 1.3703-0.55532 0.24283-0.13505 0.43073-0.28296 0.58064-0.45235l0.0061-0.0063c0.40754-0.45024 0.511-0.97552 0.3421-1.4407zm-1.5139 0.82542c-0.92475 0.51885-1.5392 0.46309-2.0163 0.77395-0.40539 0.26584-0.16678 0.83832-0.46028 1.0441-0.36317 0.25517-1.4336-0.01702-2.8165 0.44592-1.1401 0.3838-1.8685 1.4837-3.9229 1.4837-2.0586 0-2.7659-1.0956-3.9229-1.4837-1.3829-0.46309-2.4555-0.19076-2.8165-0.44592-0.29347-0.20581-0.054875-0.77826-0.46024-1.0441-0.47718-0.313-1.0916-0.25727-2.0163-0.77395-0.58908-0.33017-0.2555-0.53385-0.059152-0.63034 3.3486-1.6444 3.8807-4.1872 3.906-4.378 0.029589-0.22724 0.061257-0.40736-0.18578-0.64104-0.23859-0.22515-1.3006-0.89192-1.5941-1.0999-0.48771-0.34516-0.70097-0.69037-0.54263-1.1149 0.10979-0.2937 0.38006-0.40302 0.6651-0.40302 0.088679 0 0.17948 0.0107 0.26599 0.03 0.5342 0.11792 1.0536 0.39023 1.3534 0.46309 0.042265 0.01082 0.078126 0.01505 0.10979 0.01505 0.16047 0 0.21535-0.0815 0.20482-0.26801-0.03377-0.59389-0.11823-1.7516-0.025342-2.8343 0.1267-1.4879 0.59961-2.2254 1.1612-2.8794 0.27023-0.313 1.5371-1.6723 3.9588-1.6723 2.428 0 3.6885 1.3593 3.9588 1.6723 0.40108 0.46551 0.75697 0.97472 0.97378 1.7706 0.08677 0.3185 0.15126 0.68291 0.18746 1.1088 0.09288 1.0827 0.01275 2.2404-0.02551 2.8343-0.01275 0.19512 0.04644 0.26801 0.20478 0.26801 0.03167 0 0.06967-0.0043 0.10978-0.01505 0.29979-0.07286 0.8192-0.34516 1.3534-0.46308 0.08735-0.01962 0.17654-0.02968 0.26601-0.03 0.28506 0 0.5553 0.11148 0.6651 0.40302 0.15838 0.42453-0.057 0.76973-0.5426 1.1149-0.29345 0.20794-1.3555 0.87475-1.5941 1.0999-0.24701 0.23154-0.21534 0.41163-0.18583 0.64104 0.0233 0.19082 0.5574 2.7336 3.906 4.378 0.19005 0.09649 0.52572 0.30018-0.06334 0.63034z"/>
</svg>